<svg xmlns="http://www.w3.org/2000/svg" xmlns:xlink="http://www.w3.org/1999/xlink" viewBox="0 0 149.23 205.05"><defs><style>.cls-1{fill:#2c2cdd;}.cls-2{fill:url(#Dégradé_sans_nom_14);}.cls-3{fill:none;}.cls-4{fill:url(#Dégradé_sans_nom_14-2);}</style><linearGradient id="Dégradé_sans_nom_14" x1="4.37" y1="118.81" x2="84.98" y2="118.81" gradientUnits="userSpaceOnUse"><stop offset="0" stop-color="#fff" stop-opacity="0"/><stop offset="0" stop-color="#fdfdff" stop-opacity="0.01"/><stop offset="0.11" stop-color="#cdcdf7" stop-opacity="0.24"/><stop offset="0.22" stop-color="#a2a2f0" stop-opacity="0.44"/><stop offset="0.33" stop-color="#7e7eea" stop-opacity="0.61"/><stop offset="0.44" stop-color="#6060e5" stop-opacity="0.75"/><stop offset="0.56" stop-color="#4949e2" stop-opacity="0.86"/><stop offset="0.69" stop-color="#3939df" stop-opacity="0.94"/><stop offset="0.83" stop-color="#2f2fdd" stop-opacity="0.99"/><stop offset="1" stop-color="#2c2cdd"/></linearGradient><linearGradient id="Dégradé_sans_nom_14-2" x1="50.05" y1="2.47" x2="107.06" y2="86.66" xlink:href="#Dégradé_sans_nom_14"/></defs><title>Fichier 1</title><g id="Calque_2" data-name="Calque 2"><g id="Calque_2-2" data-name="Calque 2"><path class="cls-1" d="M105,81.85v35.62s22.5-9.37,28.12-26.25-1.87-22.5-11.25-18.75A83,83,0,0,0,105,81.85Z"/><path class="cls-1" d="M105,151.22V138.1l11.25-5.62c3.75-1.87,11.25-1.87,13.12,9.37s7.5,28.12,7.5,28.12Z"/><polygon class="cls-2" points="0 32.56 80.62 77.56 80.62 205.05 0 158.18 0 32.56"/><path class="cls-3" d="M149.23,44.85h0"/><path class="cls-4" d="M24.13,16C60.17-7.33,72.59,1.73,72.59,1.73l76.63,43.12c-2.77-.68-8-.75-17.67,2.13-18.06,5.37-50.93,30.63-50.93,30.63L0,32.61Z"/></g></g></svg>