<?xml version="1.0" encoding="utf-8"?>
<!-- Generator: Adobe Illustrator 21.0.2, SVG Export Plug-In . SVG Version: 6.00 Build 0)  -->
<svg version="1.1" id="Calque_1" xmlns="http://www.w3.org/2000/svg" xmlns:xlink="http://www.w3.org/1999/xlink" x="0px" y="0px"
	 viewBox="0 0 40.5 40.5" style="enable-background:new 0 0 40.5 40.5;" xml:space="preserve">
<title>logo facebook</title>
<g id="Calque_2">
	<g id="Calque_1-2">
		<path d="M40.5,8.2v24c0,4.6-3.7,8.2-8.2,8.2h-9.9V23.9h4.7l0.6-6h-5.3v-3.5c-0.1-0.8,0.5-1.6,1.3-1.7c0.1,0,0.3,0,0.4,0h3.6V7
			h-5.3c-2.9,0.1-4.7,0.9-5.7,2.3c-1,1.5-1.5,3.4-1.4,5.2v3.4h-3.6v6h3.6v16.6h-7c-4.6,0-8.3-3.7-8.3-8.2c0,0,0,0,0,0v-24
			C0,3.7,3.7,0,8.2,0h24C36.8,0,40.5,3.7,40.5,8.2z"/>
	</g>
</g>
</svg>
