<svg xmlns="http://www.w3.org/2000/svg" viewBox="0 0 859.16 388.93"><defs><style>.cls-1,.cls-16{fill:#c9c9c9;}.cls-1,.cls-12,.cls-15,.cls-18,.cls-2,.cls-38,.cls-43,.cls-44,.cls-49,.cls-51,.cls-7,.cls-8,.cls-9{stroke:#000;stroke-miterlimit:10;}.cls-1,.cls-7,.cls-9{stroke-width:4px;}.cls-18,.cls-2,.cls-42,.cls-43,.cls-49,.cls-51,.cls-9{fill:none;}.cls-2{stroke-width:2px;}.cls-3{fill:#6d6d6d;}.cls-4{fill:#565656;}.cls-5{fill:#3a3a3a;}.cls-6{fill:#8e8e8e;}.cls-10,.cls-7{fill:#606060;}.cls-8{fill:#898989;}.cls-11{fill:#444;}.cls-12{fill:#4897d3;}.cls-12,.cls-15,.cls-38,.cls-43,.cls-44{stroke-width:5px;}.cls-13{fill:#4382a8;}.cls-14{fill:#9fbfce;}.cls-15{fill:#ddd;}.cls-17{fill:#a0a0a0;}.cls-19{fill:#cc4c4c;}.cls-20{fill:#a04040;}.cls-21{fill:#db7b7b;}.cls-22{fill:#828282;}.cls-23{fill:#33373c;}.cls-24{fill:#202225;}.cls-25{fill:#2c2e36;}.cls-26{fill:#767984;}.cls-27{fill:#545a60;}.cls-28{fill:#f9a619;}.cls-29{fill:#5ac6f8;}.cls-30{fill:#43b581;}.cls-31{fill:#868a96;}.cls-32{fill:#a2d39b;}.cls-33{fill:#2c2f36;}.cls-34{fill:#738ad6;}.cls-35{fill:#5ac7f9;}.cls-36{fill:#1e1e1e;}.cls-37{fill:#727272;}.cls-38,.cls-39{fill:#5b5b5b;}.cls-40{fill:#4c4c4c;}.cls-41{fill:#707070;}.cls-44{fill:#16130f;}.cls-45{fill:#facb9a;}.cls-46{fill:#f9dca7;}.cls-47{fill:#f4b17f;}.cls-48{opacity:0.31;}.cls-49{stroke-width:6px;}.cls-50{opacity:0.25;}.cls-51{stroke-width:3px;}</style></defs><title>MY ILU</title><g id="Calque_1" data-name="Calque 1"><rect x="33.25" y="382.61" width="807.37" height="6.32" rx="3.16" ry="3.16"/><rect x="10.61" y="382.77" width="16.5" height="6" rx="3" ry="3"/><rect y="382.77" width="6" height="6" rx="3" ry="3"/><rect x="853.16" y="382.77" width="6" height="6" rx="3" ry="3"/><rect class="cls-1" x="257.59" y="364.54" width="47.08" height="19" rx="9.5" ry="9.5"/><rect x="278.58" y="365.22" width="4.09" height="6.36" rx="0.77" ry="0.77"/><path class="cls-2" d="M362.1,568.4a6.66,6.66,0,0,0,6.57,6.75" transform="translate(-183.39 -192.23)"/><path class="cls-2" d="M368.67,575.15a6.66,6.66,0,0,0,6.57-6.75" transform="translate(-183.39 -192.23)"/><path class="cls-2" d="M388.39,568.64a6.66,6.66,0,0,0-6.57-6.75" transform="translate(-183.39 -192.23)"/><path class="cls-2" d="M381.82,561.89a6.66,6.66,0,0,0-6.57,6.75" transform="translate(-183.39 -192.23)"/><path class="cls-2" d="M388.39,568.4a6.66,6.66,0,0,0,6.57,6.75" transform="translate(-183.39 -192.23)"/><path class="cls-2" d="M395,575.15a6.66,6.66,0,0,0,6.57-6.75" transform="translate(-183.39 -192.23)"/><path class="cls-2" d="M414.68,568.64a6.66,6.66,0,0,0-6.57-6.75" transform="translate(-183.39 -192.23)"/><path class="cls-2" d="M408.11,561.89a6.66,6.66,0,0,0-6.57,6.75" transform="translate(-183.39 -192.23)"/><path class="cls-2" d="M414.68,568.27a6.66,6.66,0,0,0,6.57,6.75" transform="translate(-183.39 -192.23)"/><path class="cls-2" d="M421.26,575a6.66,6.66,0,0,0,6.57-6.75" transform="translate(-183.39 -192.23)"/><path class="cls-2" d="M441,568.52a6.66,6.66,0,0,0-6.57-6.75" transform="translate(-183.39 -192.23)"/><path class="cls-2" d="M434.4,561.77a6.66,6.66,0,0,0-6.57,6.75" transform="translate(-183.39 -192.23)"/><path class="cls-2" d="M441,568.27a6.66,6.66,0,0,0,6.57,6.75" transform="translate(-183.39 -192.23)"/></g><g id="Calque_4" data-name="Calque 4"><rect class="cls-3" x="349.4" y="219.83" width="248" height="162" rx="8.03" ry="8.03"/><path class="cls-4" d="M643.28,574.05s137.5,9.19,137.5-54.4V566s-.57,8-8,8Z" transform="translate(-183.39 -192.23)"/><path d="M772.75,576.55H540.82A10.55,10.55,0,0,1,530.28,566V420.09a10.55,10.55,0,0,1,10.53-10.53H772.75a10.55,10.55,0,0,1,10.53,10.53V566A10.55,10.55,0,0,1,772.75,576.55Zm-231.93-162a5.54,5.54,0,0,0-5.53,5.53V566a5.54,5.54,0,0,0,5.53,5.53H772.75a5.54,5.54,0,0,0,5.53-5.53V420.09a5.54,5.54,0,0,0-5.53-5.53Z" transform="translate(-183.39 -192.23)"/><rect class="cls-5" x="465.4" y="292.64" width="16" height="16" rx="6.15" ry="6.15"/><rect class="cls-6" x="361.9" y="230.39" width="55.83" height="8.11" rx="4.05" ry="4.05"/><rect class="cls-6" x="361.9" y="230.39" width="8.83" height="22.58" rx="4.42" ry="4.42"/></g><g id="Calque_2" data-name="Calque 2"><ellipse class="cls-7" cx="707.64" cy="222.44" rx="14.97" ry="35.46"/><ellipse class="cls-8" cx="707.64" cy="222.44" rx="9.83" ry="29.17"/><path class="cls-9" d="M891,450.13v39s-2.93,27.62,27.62,27.62h59.65" transform="translate(-183.39 -192.23)"/><path class="cls-10" d="M952.67,559.46h20.76a30.32,30.32,0,0,1,21.67,9.18,6.83,6.83,0,0,0,3.4,1.89h1.05a1.71,1.71,0,1,1,0,3.42H887.25a1.71,1.71,0,0,1,0-3.42h-.4a8,8,0,0,0,5.71-2.42A28.54,28.54,0,0,1,913,559.46H930.5" transform="translate(-183.39 -192.23)"/><path class="cls-11" d="M954.64,559.46s35.53,14-3.3,14.13h48.21v-3.07L980,560.26Z" transform="translate(-183.39 -192.23)"/><path d="M999.55,575.95H887.24a3.71,3.71,0,0,1-.4-7.4v0a5.93,5.93,0,0,0,4.28-1.82A30.33,30.33,0,0,1,913,557.46H930.5v4H913a26.36,26.36,0,0,0-19,8,10,10,0,0,1-3.79,2.45H996.44a8.73,8.73,0,0,1-2.78-1.92,28.13,28.13,0,0,0-20.23-8.57H952.67v-4h20.76a32.11,32.11,0,0,1,23.09,9.78,4.81,4.81,0,0,0,2.21,1.29h.81a3.71,3.71,0,1,1,0,7.42Zm-112.3-3.43h0Z" transform="translate(-183.39 -192.23)"/><path class="cls-12" d="M737.26,244.93H775.5a1.85,1.85,0,0,1,1.85,1.85v74.65a12,12,0,0,1-12,12H747.41a12,12,0,0,1-12-12V246.78A1.85,1.85,0,0,1,737.26,244.93Z"/><rect class="cls-13" x="766.59" y="245.8" width="9.32" height="69.33" rx="0.03" ry="0.03"/><rect class="cls-14" x="741.44" y="264.6" width="5.86" height="38.5" rx="2.93" ry="2.93"/><path class="cls-15" d="M959.3,419.36v17.8H920.24v-17.8a16.49,16.49,0,0,1,10.45-15.3,16.33,16.33,0,0,1,5.38-1.12h6.79a16.41,16.41,0,0,1,7.82,2h0a16.63,16.63,0,0,1,6.55,6.55,15.89,15.89,0,0,1,2,6.68A11.66,11.66,0,0,1,959.3,419.36Z" transform="translate(-183.39 -192.23)"/><path class="cls-16" d="M975,514a4.13,4.13,0,0,1-.74,2.34l-.7,1.25-21.35,37H936.93L954,525.07l.33-.58,0-.05.3-.53h0a2.75,2.75,0,0,0,.22-.59,1.86,1.86,0,0,0,.11-.49,3.34,3.34,0,0,0,0-1.21,4,4,0,0,0-3.93-3.38H939.59a3.53,3.53,0,0,1-.55-.05,2.85,2.85,0,0,1-.32,0,2.52,2.52,0,0,1-.55-.16l-.23-.07a4.27,4.27,0,0,1-.55-.3l-.16-.1a4.76,4.76,0,0,1-.51-.41s-.07-.05-.11-.1a4.13,4.13,0,0,1-.44-.53.36.36,0,0,0-.07-.08,4.4,4.4,0,0,1-.33-.62.59.59,0,0,1-.05-.1,3.8,3.8,0,0,1-.21-.67l0-.11a4.36,4.36,0,0,1-.08-.85V483a4.31,4.31,0,0,1,.81-2.64,4.21,4.21,0,0,1,4.45-1.6,4.39,4.39,0,0,1,3.12,4.3v22.78a4.1,4.1,0,0,0,.11.92h0a4,4,0,0,0,1.1,1.93,4.09,4.09,0,0,0,2.22,1.08v0h23.57a4.13,4.13,0,0,1,2.94,1.22A4.18,4.18,0,0,1,975,514Z" transform="translate(-183.39 -192.23)"/><polygon class="cls-17" points="789.39 315.14 760.87 364.54 774.31 364.54 797.42 321.2 789.39 315.14"/><path d="M978.58,506.24a11,11,0,0,0-7.81-3.25H950.62V483.28a11.34,11.34,0,0,0-10-11.44,11,11,0,0,0-9.81,4.34,11.33,11.33,0,0,0-2.23,7V514a10.12,10.12,0,0,0,.05,1.12c0,.12,0,.25.05.37s.07.49.11.73.07.26.11.4.1.44.16.66l.12.33c.08.23.15.47.25.68s.08.15.11.22c.11.26.23.51.36.75a.58.58,0,0,1,.07.1,11.07,11.07,0,0,0,8.5,5.63h.32c.25,0,.49,0,.75,0h6.56l-16.39,28.39a8.64,8.64,0,0,0-1.14,4.75l.19,3.23h27.38s23.58-40.87,23.62-41l.63-1a10.89,10.89,0,0,0,1.44-5.42A11,11,0,0,0,978.58,506.24Zm-4.36,10.13-.7,1.25-21.35,37H936.93L954,525.07l.33-.58,0-.05.3-.53h0a2.75,2.75,0,0,0,.22-.59,1.86,1.86,0,0,0,.11-.49,3.34,3.34,0,0,0,0-1.21,4,4,0,0,0-3.93-3.38H939.59a3.53,3.53,0,0,1-.55-.05,2.85,2.85,0,0,1-.32,0,2.52,2.52,0,0,1-.55-.16l-.23-.07a4.27,4.27,0,0,1-.55-.3l-.16-.1a4.76,4.76,0,0,1-.51-.41s-.07-.05-.11-.1a4.13,4.13,0,0,1-.44-.53.36.36,0,0,0-.07-.08,4.4,4.4,0,0,1-.33-.62.59.59,0,0,1-.05-.1,3.8,3.8,0,0,1-.21-.67l0-.11a4.36,4.36,0,0,1-.08-.85V483a4.31,4.31,0,0,1,.81-2.64,4.21,4.21,0,0,1,4.45-1.6,4.39,4.39,0,0,1,3.12,4.3v22.78a4.1,4.1,0,0,0,.11.92h0a4,4,0,0,0,1.1,1.93,4.09,4.09,0,0,0,2.22,1.08v0h23.57a4.13,4.13,0,0,1,2.94,1.22,4.18,4.18,0,0,1,1.25,3A4.13,4.13,0,0,1,974.22,516.37Z" transform="translate(-183.39 -192.23)"/><rect class="cls-2" x="726.45" y="293.4" width="8.96" height="12.67" rx="1.67" ry="1.67"/><rect class="cls-2" x="777.35" y="255.66" width="8.15" height="10.15" rx="1.67" ry="1.67"/><rect class="cls-2" x="777.35" y="274.32" width="8.15" height="10.15" rx="1.67" ry="1.67"/><rect class="cls-2" x="730.02" y="274.32" width="5.39" height="7.26" rx="1.67" ry="1.67"/><circle class="cls-2" cx="755.98" cy="291.57" r="6.72"/><circle class="cls-2" cx="755.98" cy="291.51" r="2.32"/><polyline class="cls-18" points="746.48 244.94 742.54 240.99 739.47 237.93 736.85 235.31 736.4 234.86"/><polyline class="cls-18" points="736.85 228.72 739.59 231.46 742.76 234.62 745.82 237.69 748.92 240.79 752 243.87 753.07 244.94"/><polyline class="cls-18" points="760.04 244.94 758.45 243.34 755.49 240.39 752.41 237.29 749.32 234.2 746.25 231.13 743.09 227.97 740.09 224.97 737.54 222.44"/><line class="cls-18" x1="743.24" y1="214.56" x2="771.03" y2="242.35"/><polyline class="cls-18" points="774.43 238.95 771.5 236.02 768.63 233.16 765.68 230.2 762.59 227.12 759.49 224.02 756.44 220.96 753.26 217.79 750.26 214.79 747.3 211.84"/><line class="cls-18" x1="758.85" y1="210.57" x2="775.02" y2="226.74"/><line class="cls-18" x1="766.24" y1="211.62" x2="774.47" y2="219.85"/><polyline class="cls-18" points="771.56 229.58 768.93 226.96 765.85 223.87 762.75 220.78 759.68 217.71 756.52 214.55 752.69 210.71"/><polyline class="cls-18" points="766.79 244.94 764.68 242.83 761.82 239.97 758.86 237.01 755.78 233.93 752.69 230.83 749.62 227.76 746.45 224.6 743.46 221.6 739.73 217.88"/><line class="cls-18" x1="752.53" y1="212.53" x2="738.92" y2="226.14"/><line class="cls-18" x1="759.72" y1="211.34" x2="737.94" y2="233.11"/><line class="cls-18" x1="764.51" y1="212.87" x2="739.27" y2="238.12"/><line class="cls-18" x1="770.97" y1="218.74" x2="745.73" y2="243.98"/><polyline class="cls-18" points="750.95 244.94 752 243.87 755.49 240.39 758.86 237.01 762.29 233.6 765.68 230.2 768.93 226.96 772.08 223.79 774.05 221.82"/><polyline class="cls-18" points="774.6 232.93 771.5 236.02 768.11 239.42 764.68 242.83 762.57 244.94"/><line class="cls-18" x1="773.64" y1="239.63" x2="766.16" y2="247.11"/><polyline class="cls-18" points="757.33 244.46 758.45 243.34 761.82 239.97 765.23 236.56 768.63 233.16 775.86 225.93"/><line class="cls-18" x1="741.13" y1="242.37" x2="768.98" y2="214.53"/><rect x="741.44" y="246.47" width="1.13" height="9.19" rx="0.57" ry="0.57"/><rect x="745.92" y="246.47" width="1.13" height="15.88" rx="0.57" ry="0.57"/></g><g id="Calque_3" data-name="Calque 3"><path class="cls-19" d="M625.34,334.5h44.11a1.78,1.78,0,0,1,1.78,1.78v40.06a5.83,5.83,0,0,1-5.83,5.83h-36a5.83,5.83,0,0,1-5.83-5.83V336.28A1.78,1.78,0,0,1,625.34,334.5Z"/><path class="cls-20" d="M817,571.9c.5.06,33,.81,35.13-22.87l.56,21.38-1.75,2.38Z" transform="translate(-183.39 -192.23)"/><path d="M848.78,576.89h-36a8.34,8.34,0,0,1-8.33-8.33V528.51a4.28,4.28,0,0,1,4.28-4.28h44.11a4.28,4.28,0,0,1,4.28,4.28v40.06A8.34,8.34,0,0,1,848.78,576.89Zm-39.33-47.67v39.33a3.34,3.34,0,0,0,3.33,3.33h36a3.34,3.34,0,0,0,3.33-3.33V529.23Z" transform="translate(-183.39 -192.23)"/><rect class="cls-21" x="629.73" y="339.04" width="7.69" height="30.37" rx="3.84" ry="3.84"/><path d="M854.05,537v2a10.32,10.32,0,0,1,0,20.63v2a12.32,12.32,0,0,0,0-24.63Z" transform="translate(-183.39 -192.23)"/><path d="M854.05,563.14h-1.5v-5h1.5a8.81,8.81,0,0,0,0-17.63h-1.5v-5h1.5a13.81,13.81,0,0,1,0,27.63Z" transform="translate(-183.39 -192.23)"/><rect x="623.56" y="344" width="12.03" height="4" rx="2" ry="2"/><rect x="647.12" y="344" width="23.55" height="4" rx="2" ry="2"/><path class="cls-22" d="M838.34,520.66h-2a21.31,21.31,0,0,0-21.29-21.29v-2A23.31,23.31,0,0,1,838.34,520.66Z" transform="translate(-183.39 -192.23)"/><path class="cls-22" d="M804.91,492h-2A23.31,23.31,0,0,1,826.2,468.7v2A21.31,21.31,0,0,0,804.91,492Z" transform="translate(-183.39 -192.23)"/><path class="cls-22" d="M830.5,473.37v-2a21.31,21.31,0,0,0,21.29-21.29h2A23.31,23.31,0,0,1,830.5,473.37Z" transform="translate(-183.39 -192.23)"/><path class="cls-22" d="M849.49,440.42h-2a21.31,21.31,0,0,0-21.29-21.29v-2A23.31,23.31,0,0,1,849.49,440.42Z" transform="translate(-183.39 -192.23)"/><rect x="640.65" y="344" width="4" height="4" rx="2" ry="2"/><circle cx="654.12" cy="400.94"/><rect x="665.6" y="362.12" width="1.25" height="10.69" rx="0.62" ry="0.62"/></g><g id="Calque_5" data-name="Calque 5"><path class="cls-23" d="M407.21,361.72a1.46,1.46,0,0,1-1.46-1.46v-3a1.46,1.46,0,0,1,1.46-1.47h26a1.47,1.47,0,0,1,1.46,1.47v3a1.46,1.46,0,0,1-1.46,1.46Z" transform="translate(-183.39 -192.23)"/><rect class="cls-23" x="232.85" y="174.83" width="27.31" height="5.89" rx="1.47" ry="1.47"/><rect class="cls-23" x="232.85" y="188.27" width="27.31" height="5.89" rx="1.47" ry="1.47"/><path class="cls-23" d="M449.4,385.91a4.7,4.7,0,1,1,8.7-2.48,4.71,4.71,0,0,1-4.71,4.71,4.65,4.65,0,0,1-2.19-.55,1.25,1.25,0,1,1-1.8-1.68Z" transform="translate(-183.39 -192.23)"/><path class="cls-23" d="M458.1,370a4.71,4.71,0,0,1-4.71,4.71,4.65,4.65,0,0,1-2.19-.55,1.25,1.25,0,1,1-1.8-1.68,4.7,4.7,0,1,1,8.7-2.48Z" transform="translate(-183.39 -192.23)"/><path class="cls-23" d="M456.63,324h-44v-9.11h44a1.46,1.46,0,0,1,1.47,1.46v6.18A1.47,1.47,0,0,1,456.63,324Z" transform="translate(-183.39 -192.23)"/><path class="cls-23" d="M458.1,360.26a1.46,1.46,0,0,1-1.47,1.46H441.06a1.46,1.46,0,0,1-1.46-1.46v-3a1.47,1.47,0,0,1,1.46-1.47h15.57a1.47,1.47,0,0,1,1.47,1.47Z" transform="translate(-183.39 -192.23)"/><rect class="cls-23" x="229.23" y="138.91" width="53.36" height="15.1"/><rect class="cls-23" x="229.23" y="293.96" width="53.38" height="24.19"/><path class="cls-24" d="M497.73,316.52V501.66a8.18,8.18,0,0,1-8.18,8.18H466v-201h26.43A8.18,8.18,0,0,1,497.73,316.52Z" transform="translate(-183.39 -192.23)"/><rect class="cls-25" x="229.23" y="138.91" width="53.36" height="15.1"/><rect class="cls-25" x="229.23" y="293.96" width="53.38" height="24.19"/><rect class="cls-26" x="280.89" y="138.91" width="1.7" height="15.1"/><path class="cls-27" d="M458.1,357.31v3a1.46,1.46,0,0,1-1.47,1.46H441.06a1.46,1.46,0,0,1-1.46-1.46v-3a1.47,1.47,0,0,1,1.46-1.47h15.57A1.47,1.47,0,0,1,458.1,357.31Z" transform="translate(-183.39 -192.23)"/><rect class="cls-27" x="415.47" y="335.74" width="27.52" height="5.88" rx="1.46" ry="1.46" transform="translate(675.08 485.14) rotate(-180)"/><path class="cls-27" d="M458.1,316.31v6.18a1.47,1.47,0,0,1-1.47,1.47h-44v-9.11h44A1.46,1.46,0,0,1,458.1,316.31Z" transform="translate(-183.39 -192.23)"/><path class="cls-27" d="M434.67,357.31v3a1.46,1.46,0,0,1-1.46,1.46h-26a1.46,1.46,0,0,1-1.46-1.46v-3a1.46,1.46,0,0,1,1.46-1.47h26A1.47,1.47,0,0,1,434.67,357.31Z" transform="translate(-183.39 -192.23)"/><rect class="cls-27" x="232.85" y="174.83" width="27.31" height="5.89" rx="1.47" ry="1.47"/><rect class="cls-27" x="232.85" y="188.27" width="27.31" height="5.89" rx="1.47" ry="1.47"/><path class="cls-28" d="M458.1,370a4.71,4.71,0,0,1-4.71,4.71,4.72,4.72,0,0,1-4.7-4.71,4.7,4.7,0,0,1,9.41,0Z" transform="translate(-183.39 -192.23)"/><circle class="cls-27" cx="270.01" cy="146.46" r="4.7"/><path class="cls-29" d="M458.1,383.43a4.71,4.71,0,0,1-4.71,4.71,4.72,4.72,0,0,1-4.7-4.71,4.7,4.7,0,0,1,9.41,0Z" transform="translate(-183.39 -192.23)"/><path class="cls-30" d="M451.41,386.89a1.28,1.28,0,0,1-.21.7,1.25,1.25,0,1,1-1.8-1.68,1.22,1.22,0,0,1,.77-.27A1.24,1.24,0,0,1,451.41,386.89Z" transform="translate(-183.39 -192.23)"/><path class="cls-30" d="M451.41,373.45a1.28,1.28,0,0,1-.21.7,1.25,1.25,0,1,1-1.8-1.68,1.22,1.22,0,0,1,.77-.27A1.24,1.24,0,0,1,451.41,373.45Z" transform="translate(-183.39 -192.23)"/><path class="cls-31" d="M434,494.15v1.76a1.1,1.1,0,0,1-1.1,1.1H412.62v-4h20.23A1.1,1.1,0,0,1,434,494.15Z" transform="translate(-183.39 -192.23)"/><rect class="cls-27" x="414.91" y="500.34" width="18.68" height="3.95" rx="1.1" ry="1.1" transform="translate(665.12 812.41) rotate(-180)"/><circle class="cls-32" cx="268.2" cy="305.9" r="9.57"/><circle class="cls-30" cx="260.11" cy="311.12" r="3.62"/><circle class="cls-33" cx="305.9" cy="122.95" r="1.99"/><circle class="cls-33" cx="298.33" cy="122.95" r="1.99"/><circle class="cls-33" cx="290.76" cy="122.95" r="1.99"/><rect class="cls-34" x="472.13" y="322.31" width="19.15" height="19.15" rx="3.18" ry="3.18" transform="translate(780.02 471.54) rotate(-180)"/><path class="cls-31" d="M494,325.23h1.37a1.7,1.7,0,0,1,1.7,1.7v9.89a1.7,1.7,0,0,1-1.7,1.7H494a0,0,0,0,1,0,0v-13.3A0,0,0,0,1,494,325.23Z" transform="translate(807.76 471.54) rotate(-180)"/><rect class="cls-33" x="472.14" y="346.54" width="19.15" height="2.7" rx="0.75" ry="0.75" transform="translate(780.04 503.55) rotate(-180)"/><circle class="cls-33" cx="298.33" cy="171.72" r="9.59"/><circle class="cls-33" cx="298.33" cy="196.01" r="9.59"/><circle class="cls-33" cx="298.33" cy="220.3" r="9.59"/><circle class="cls-35" cx="298.33" cy="244.6" r="9.59"/><path class="cls-2" d="M497.73,316.52V501.66a8.18,8.18,0,0,1-8.18,8.18H304.42a8.09,8.09,0,0,1-4.63-1.44,8.87,8.87,0,0,1-1.15-1,8.15,8.15,0,0,1-2.4-5.78V316.52a8.17,8.17,0,0,1,5.43-7.7,8.31,8.31,0,0,1,2.75-.47H489.55a8.16,8.16,0,0,1,8.18,8.17Z" transform="translate(-183.39 -192.23)"/><path class="cls-36" d="M495.8,302.09H298.16a8.18,8.18,0,0,0-8.18,8.18V507.91a8.18,8.18,0,0,0,8.18,8.18H495.8a8.18,8.18,0,0,0,8.18-8.18V310.27A8.18,8.18,0,0,0,495.8,302.09Zm1.93,199.57a8.18,8.18,0,0,1-8.18,8.18H304.42a8.09,8.09,0,0,1-4.63-1.44,8.87,8.87,0,0,1-1.15-1,8.15,8.15,0,0,1-2.4-5.78V316.52a8.17,8.17,0,0,1,5.43-7.7,8.31,8.31,0,0,1,2.75-.47H489.55a8.16,8.16,0,0,1,8.18,8.17Z" transform="translate(-183.39 -192.23)"/><path class="cls-2" d="M497.73,316.52V501.66a8.18,8.18,0,0,1-8.18,8.18H304.42a8.09,8.09,0,0,1-4.63-1.44,8.87,8.87,0,0,1-1.15-1,8.15,8.15,0,0,1-2.4-5.78V316.52a8.17,8.17,0,0,1,5.43-7.7,8.31,8.31,0,0,1,2.75-.47H489.55a8.16,8.16,0,0,1,8.18,8.17Z" transform="translate(-183.39 -192.23)"/><path class="cls-37" d="M340.82,484.82V556a19.73,19.73,0,0,1,14.86.21V484.82Z" transform="translate(-183.39 -192.23)"/><path class="cls-5" d="M335.33,484.79v74.5a6,6,0,0,1,.49-.39V484.81Z" transform="translate(-183.39 -192.23)"/><path class="cls-37" d="M332.39,573.64h29.47a14.74,14.74,0,0,0-27.38-7.57c-.13.22-.25.44-.37.66A14.65,14.65,0,0,0,332.39,573.64Z" transform="translate(-183.39 -192.23)"/><path class="cls-5" d="M349.2,559.2s6,4.23,6,8.78-3.87,5.66-6.92,5.66l13.85.34v-7.39l-3.77-4.32L353,559.75Z" transform="translate(-183.39 -192.23)"/><path d="M327.39,573.64v1.74h39.47v-1.74a19.64,19.64,0,0,0-6.18-14.34V484.61H330.33v78.59h.07c-.33.53-.64,1.06-.92,1.61A19.5,19.5,0,0,0,327.39,573.64Zm8.43-16.15-.49.36V484.78l.49,0Zm19.86-1.63-.85-.4a19.57,19.57,0,0,0-14-.5V484.82h14.86Zm-23.29,17.78a14.65,14.65,0,0,1,1.72-6.91c.12-.22.24-.44.37-.66a16.46,16.46,0,0,1,.93-1.37l.31-.39.44-.51h0c.2-.22.39-.43.61-.64a14,14,0,0,1,1.49-1.28,5.74,5.74,0,0,1,.5-.36l.31-.22h0c.22-.14.44-.28.67-.41s.55-.31.83-.45.69-.32,1-.46a5.11,5.11,0,0,1,.5-.19,9.8,9.8,0,0,1,1-.31c.32-.1.65-.18,1-.25h.07l.43-.08.39-.07h0l.37,0,.46,0h0a3.11,3.11,0,0,1,.43,0c.28,0,.56,0,.85,0a14.75,14.75,0,0,1,14.73,14.74Z" transform="translate(-183.39 -192.23)"/><path class="cls-16" d="M343.24,564.12a1,1,0,0,0-1-1h0a6.42,6.42,0,0,0-6.41,6.42,1,1,0,0,0,2,0,4.42,4.42,0,0,1,4.42-4.42h0A1,1,0,0,0,343.24,564.12Z" transform="translate(-183.39 -192.23)"/><rect class="cls-38" x="37.75" y="109.87" width="214" height="214" rx="8.18" ry="8.18"/><rect class="cls-39" x="27.75" y="109.87" width="214" height="214" rx="8.18" ry="8.18"/><polygon class="cls-40" points="152.35 201.84 209.65 259.14 209.65 323.87 185.79 323.87 185.79 266.33 144.79 225.33 152.35 201.84"/><path d="M417,518.6H219.31a10.69,10.69,0,0,1-10.68-10.68V310.27a10.69,10.69,0,0,1,10.68-10.68H417a10.69,10.69,0,0,1,10.68,10.68V507.92A10.69,10.69,0,0,1,417,518.6Zm-197.64-214a5.69,5.69,0,0,0-5.68,5.68V507.92a5.69,5.69,0,0,0,5.68,5.68H417a5.69,5.69,0,0,0,5.68-5.68V310.27A5.69,5.69,0,0,0,417,304.6Z" transform="translate(-183.39 -192.23)"/><path d="M304.27,350.32h-5.13v-22.4h5c2.82,0,4.51,2.18,4.51,6,0,1.92-.56,3.78-1.51,4.64,1.37.93,1.95,2.75,1.95,5.06C309.06,348.18,306.94,350.32,304.27,350.32Zm-1.75-17.73v4.06H304c.77,0,1.19-.86,1.19-2.08s-.4-2-1.23-2Zm0,8.45v4.58h1.65c.89,0,1.39-1,1.39-2.3s-.48-2.27-1.37-2.27Z" transform="translate(-183.39 -192.23)"/><path d="M310.81,350.32v-22.4h7.41v4.9h-4v3.74h3.42v4.86h-3.42v4h4.17v4.9Z" transform="translate(-183.39 -192.23)"/><path d="M320.45,350.32v-22.4h3.4v17.5H328v4.9Z" transform="translate(-183.39 -192.23)"/><path d="M329.55,350.32v-22.4h3.4v17.5h4.17v4.9Z" transform="translate(-183.39 -192.23)"/><ellipse class="cls-5" cx="77.96" cy="282.79" rx="4.54" ry="4.53"/><path class="cls-37" d="M251.82,475a9.6,9.6,0,0,0,1.14,4.53H239.24a4.54,4.54,0,1,1,0-9.07H253A9.52,9.52,0,0,0,251.82,475Z" transform="translate(-183.39 -192.23)"/><path class="cls-37" d="M256.6,484.55v71.22a19.73,19.73,0,0,0-14.86.21V484.55Z" transform="translate(-183.39 -192.23)"/><path class="cls-5" d="M262.09,484.52V559a6,6,0,0,0-.49-.39V484.54Z" transform="translate(-183.39 -192.23)"/><path class="cls-37" d="M265,573.37H235.56a14.74,14.74,0,0,1,27.38-7.57c.13.22.25.44.37.66A14.65,14.65,0,0,1,265,573.37Z" transform="translate(-183.39 -192.23)"/><path class="cls-5" d="M253.28,558.93s6,4.23,6,8.78-3.87,5.66-6.92,5.66l13.85.34v-7.39L262.45,562l-5.33-2.52Z" transform="translate(-183.39 -192.23)"/><path class="cls-5" d="M331.23,401.23v7.92l-61.44,61.44a9.54,9.54,0,0,0-3.94-4Z" transform="translate(-183.39 -192.23)"/><polygon class="cls-37" points="144.73 205.87 76.52 273.26 64.68 273.26 132.07 205.87 144.73 205.87"/><path d="M313,393.59v.12l-.12-.12L241,465.49h-1.75a9.54,9.54,0,0,0-2.5,18.74V559a19.66,19.66,0,0,0-6.18,14.34v1.74H270v-1.74a19.5,19.5,0,0,0-2.09-8.82c-.28-.55-.59-1.09-.91-1.61h.06V482.62a9.47,9.47,0,0,0,3.65-5.91l65-65-.08-.08h.08v-18Zm18.21,15.56-61.44,61.44a9.54,9.54,0,0,0-3.94-4l65.38-65.39Zm-89.49,75.4H256.6v70.14a19.56,19.56,0,0,0-14,.5c-.29.12-.57.27-.85.4Zm19.61-5a4.53,4.53,0,1,1,4.54-4.53A4.53,4.53,0,0,1,261.35,479.55Zm54.11-81.45h12.66l-68.21,67.39H248.07ZM234.7,475a4.54,4.54,0,0,1,4.54-4.54H253a9.53,9.53,0,0,0,0,9.06H239.24A4.55,4.55,0,0,1,234.7,475Zm.86,98.34a14.74,14.74,0,0,1,27.38-7.57c.13.22.25.44.37.66a14.65,14.65,0,0,1,1.72,6.91Zm26.53-15.79-.49-.36V484.54l.49,0Z" transform="translate(-183.39 -192.23)"/><path class="cls-16" d="M247.32,563.85a1,1,0,0,0-1-1h0a6.42,6.42,0,0,0-6.41,6.42,1,1,0,0,0,2,0,4.42,4.42,0,0,1,4.42-4.42h0A1,1,0,0,0,247.32,563.85Z" transform="translate(-183.39 -192.23)"/><rect class="cls-41" x="34.4" y="117.06" width="5.33" height="59.67" rx="2.67" ry="2.67"/><path class="cls-42" d="M412.62,355.84v5.88h-5.41a1.46,1.46,0,0,1-1.46-1.46v-3a1.46,1.46,0,0,1,1.46-1.47Z" transform="translate(-183.39 -192.23)"/></g><g id="Calque_6" data-name="Calque 6"><line class="cls-43" x1="478.72" y1="212.6" x2="478.72" y2="220.19"/><line class="cls-43" x1="463.8" y1="213.65" x2="463.8" y2="219.83"/><path class="cls-44" d="M605.5,306.66c.2-2.87-6.85-38.5-.2-54.94s26.62-18.79,30.14-21.14,19.18-11,23.88-9.4,21.14,10.57,25.05,13.31,12.53,3.13,13.31,6.66,7,7,7.44,9.79,4.7,3.13,3.52,12.92-3.52,35.42-3.52,35.42" transform="translate(-183.39 -192.23)"/><path class="cls-45" d="M655.21,406.56h0c-18.07,0-30.55-21.66-39.19-36.17a76,76,0,0,1-10.53-38.92V284.81c0-12.14,22.37-25.05,49.72-25.05h0c27.34,0,49.72,14.09,49.72,25.05v46.93a73.87,73.87,0,0,1-11.62,40.1C684.7,385.18,672.3,406.56,655.21,406.56Z" transform="translate(-183.39 -192.23)"/><path class="cls-46" d="M613.33,275v64.2s1.57,30.14,21.14,50.5S659.52,405,659.52,405l-10.18,1.57-15-10.25L618.48,374.5l-10.13-22.55-2.46-21.34-.59-42.28S607.85,276.19,611,275,613.33,275,613.33,275Z" transform="translate(-183.39 -192.23)"/><path class="cls-47" d="M698.08,275.41v64.2s-1.57,30.14-21.14,50.5-25.05,15.27-25.05,15.27l10.18,1.57,15-10.25,15.86-21.81,10.13-22.55L705.52,331l.59-42.28s-2.54-12.14-5.68-13.31S698.08,275.41,698.08,275.41Z" transform="translate(-183.39 -192.23)"/><path class="cls-48" d="M632.41,391s21.86,21.08,45.92,0l-4,9.37-14.68,5.67-22.22-6Z" transform="translate(-183.39 -192.23)"/><path d="M655.21,408.71c-8.46,0-16.4-4.21-24.29-12.87-6.51-7.15-11.87-16.15-16.17-23.39l-.57-1a78.17,78.17,0,0,1-10.83-40V284.81c0-6.79,5.74-13.71,15.75-19s22.9-8.22,36.12-8.22c28.73,0,51.87,14.88,51.87,27.21v46.93a75.84,75.84,0,0,1-12,41.27l-1.82,2.84C684.45,389.71,672.31,408.71,655.21,408.71Zm0-146.8c-12.35,0-24.79,2.82-34.11,7.73-8.43,4.44-13.45,10.11-13.45,15.17v46.65a73.86,73.86,0,0,0,10.22,37.82l.58,1c8.58,14.41,20.32,34.15,36.77,34.15,14.74,0,26.14-17.85,34.46-30.88l1.83-2.86a71.54,71.54,0,0,0,11.27-38.93V284.81C702.78,275.8,682.35,261.9,655.21,261.9Z" transform="translate(-183.39 -192.23)"/><path class="cls-49" d="M605.3,314.33V341h-.15c-3.81,0-6.89-6-6.89-13.33s3.09-13.33,6.89-13.33Z" transform="translate(-183.39 -192.23)"/><line class="cls-49" x1="521.74" y1="122.1" x2="521.74" y2="148.75"/><g id="_Groupe_" data-name="&lt;Groupe&gt;"><path id="_Tracé_" data-name="&lt;Tracé&gt;" class="cls-45" d="M705.73,340.66c.18-1.85,1.76-13.49,2-26.76h0s11.15-.8,10.13,9.47-4.38,21.6-13.13,20.73h0A20.75,20.75,0,0,0,705.73,340.66Z" transform="translate(-183.39 -192.23)"/></g><g id="_Groupe_2" data-name="&lt;Groupe&gt;"><path id="_Tracé_2" data-name="&lt;Tracé&gt;" d="M710.92,334.43a1.94,1.94,0,0,1-1.64-2.58c1.66-4.66,1-6.58.5-7.32a2.6,2.6,0,0,0-2-1,2,2,0,0,1-2-1.89,1.93,1.93,0,0,1,1.84-2,6.46,6.46,0,0,1,5.26,2.51c1.77,2.4,1.79,6.08.06,11A1.94,1.94,0,0,1,710.92,334.43Z" transform="translate(-183.39 -192.23)"/></g><g id="_Groupe_3" data-name="&lt;Groupe&gt;"><path id="_Tracé_transparent_" data-name="&lt;Tracé transparent&gt;" d="M704.59,346a1.94,1.94,0,0,1-1.65-2.56,20.79,20.79,0,0,0,.85-3l0-.23a190,190,0,0,0,.78-26.37,1.94,1.94,0,0,1,2.13-2l1.09.11c1.07,0,6.28-.07,9.54,3.27,2,2,2.83,4.85,2.48,8.34C718.32,338.88,712.91,346.87,704.59,346Zm4-30.2a192.22,192.22,0,0,1-.87,24.79l0,.23a8.6,8.6,0,0,1-.21,1.1c5.91-1.75,7.87-12.19,8.53-18.78.23-2.32-.22-4-1.39-5.23C712.83,316.13,709.86,315.87,708.56,315.84Z" transform="translate(-183.39 -192.23)"/></g><g id="_Groupe_4" data-name="&lt;Groupe&gt;"><path id="_Tracé_3" data-name="&lt;Tracé&gt;" class="cls-45" d="M605.46,341.45c-.18-1.85-1.76-13.49-2-26.76h0s-11.15-.8-10.13,9.47,4.38,21.6,13.13,20.73h0A20.75,20.75,0,0,1,605.46,341.45Z" transform="translate(-183.39 -192.23)"/></g><g id="_Groupe_5" data-name="&lt;Groupe&gt;"><path id="_Tracé_4" data-name="&lt;Tracé&gt;" d="M600.27,335.21a1.94,1.94,0,0,0,1.64-2.58c-1.66-4.66-1-6.58-.5-7.32a2.6,2.6,0,0,1,2-1,2,2,0,0,0,2-1.89,1.93,1.93,0,0,0-1.84-2,6.46,6.46,0,0,0-5.26,2.51c-1.77,2.4-1.79,6.08-.06,11A1.94,1.94,0,0,0,600.27,335.21Z" transform="translate(-183.39 -192.23)"/></g><g id="_Groupe_6" data-name="&lt;Groupe&gt;"><path id="_Tracé_transparent_2" data-name="&lt;Tracé transparent&gt;" d="M591.35,324.35c-.35-3.48.49-6.29,2.48-8.34,3.25-3.34,8.47-3.31,9.54-3.27l1.09-.11a1.94,1.94,0,0,1,2.13,2,190,190,0,0,0,.78,26.37l0,.23a20.79,20.79,0,0,0,.85,3,1.94,1.94,0,0,1-1.65,2.56C598.28,347.65,592.87,339.67,591.35,324.35Zm5.25-5.62c-1.17,1.2-1.62,2.92-1.39,5.23.65,6.58,2.62,17,8.53,18.78a8.6,8.6,0,0,1-.21-1.1l0-.23a192.22,192.22,0,0,1-.87-24.79C601.33,316.65,598.35,316.92,596.6,318.73Z" transform="translate(-183.39 -192.23)"/></g><g id="_Groupe_7" data-name="&lt;Groupe&gt;"><g id="_Groupe_8" data-name="&lt;Groupe&gt;"><circle id="_Tracé_5" data-name="&lt;Tracé&gt;" cx="492.75" cy="127.71" r="5.67"/></g><g id="_Groupe_9" data-name="&lt;Groupe&gt;"><circle id="_Tracé_6" data-name="&lt;Tracé&gt;" cx="450.95" cy="127.71" r="5.67"/></g></g><g id="_Groupe_10" data-name="&lt;Groupe&gt;"><path id="_Tracé_7" data-name="&lt;Tracé&gt;" d="M657.57,348.62c-6.7,0-10.11-4.15-11-6.58a2.84,2.84,0,0,1,.39-2.7c2.34-3.12,4.8-11.47,5.55-14.42a2.84,2.84,0,1,1,5.5,1.4c-.27,1.07-2.51,9.67-5.42,14.76.91,1,2.83,2.25,6.56,1.77a2.84,2.84,0,0,1,.73,5.63A17.71,17.71,0,0,1,657.57,348.62Z" transform="translate(-183.39 -192.23)"/></g><g id="_Groupe_11" data-name="&lt;Groupe&gt;"><path id="_Tracé_8" data-name="&lt;Tracé&gt;" d="M655.79,368.39h0c-9.09,0-18.07-3.54-23.45-9.24a2.84,2.84,0,1,1,4.13-3.89c4.34,4.6,11.75,7.46,19.32,7.46a24.73,24.73,0,0,0,18.29-7.46,2.84,2.84,0,0,1,4.13,3.89A30.35,30.35,0,0,1,655.79,368.39Z" transform="translate(-183.39 -192.23)"/></g><g id="_Groupe_12" data-name="&lt;Groupe&gt;"><path id="_Tracé_9" data-name="&lt;Tracé&gt;" d="M622.19,312.7a2.84,2.84,0,0,1-2.58-4,16.77,16.77,0,0,1,29.46,0,2.84,2.84,0,1,1-5.16,2.37,11.14,11.14,0,0,0-19.14,0A2.84,2.84,0,0,1,622.19,312.7Z" transform="translate(-183.39 -192.23)"/></g><g id="_Groupe_13" data-name="&lt;Groupe&gt;"><path id="_Tracé_10" data-name="&lt;Tracé&gt;" d="M664,312.7a2.84,2.84,0,0,1-2.58-4,16.78,16.78,0,0,1,29.46,0,2.84,2.84,0,0,1-5.16,2.37,11.14,11.14,0,0,0-19.15,0A2.84,2.84,0,0,1,664,312.7Z" transform="translate(-183.39 -192.23)"/></g><path class="cls-50" d="M671.46,354.11a1.17,1.17,0,0,0-1.78-1h0c-15.73,9.5-28.31.45-28.84.06h0a1.17,1.17,0,1,0-1.4,1.88h0a26.71,26.71,0,0,0,9.27,4,28.21,28.21,0,0,0,6.32.72,30.34,30.34,0,0,0,15.85-4.63h0A1.17,1.17,0,0,0,671.46,354.11Z" transform="translate(-183.39 -192.23)"/><circle class="cls-51" cx="640.65" cy="162.13" r="9.31"/><circle class="cls-51" cx="364.28" cy="48.11" r="5.12"/><circle class="cls-51" cx="87.94" cy="73.43" r="5.12"/><circle class="cls-51" cx="344.43" cy="191.21" r="7.76"/><circle class="cls-51" cx="840.61" cy="300.83" r="7.76"/><path d="M612.2,202.65h-9v-9a1.38,1.38,0,0,0-2.75,0v9h-9a1.37,1.37,0,0,0,0,2.75h9v9a1.38,1.38,0,1,0,2.75,0v-9h9a1.38,1.38,0,0,0,0-2.75Z" transform="translate(-183.39 -192.23)"/><path d="M374.3,247.81h-13v-13a2,2,0,1,0-4,0v13h-13a2,2,0,0,0,0,4h13v13a2,2,0,1,0,4,0v-13h13a2,2,0,0,0,0-4Z" transform="translate(-183.39 -192.23)"/><path d="M778.8,275.37h-4v-4a.61.61,0,1,0-1.21,0v4h-4a.61.61,0,1,0,0,1.21h4v4a.61.61,0,1,0,1.21,0v-4h4a.61.61,0,0,0,0-1.21Z" transform="translate(-183.39 -192.23)"/><path d="M777,375.16h-3.26V371.9a.5.5,0,1,0-1,0v3.26h-3.26a.5.5,0,1,0,0,1h3.26v3.26a.5.5,0,0,0,1,0v-3.26H777a.5.5,0,0,0,0-1Z" transform="translate(-183.39 -192.23)"/></g></svg>